<?xml version="1.0" standalone="no"?>
<!DOCTYPE svg PUBLIC "-//W3C//DTD SVG 20010904//EN"
 "http://www.w3.org/TR/2001/REC-SVG-20010904/DTD/svg10.dtd">
<svg version="1.0" xmlns="http://www.w3.org/2000/svg"
 width="513.000000pt" height="216.000000pt" viewBox="0 0 513.000000 216.000000"
 preserveAspectRatio="xMidYMid meet">

<g transform="translate(0.000000,216.000000) scale(0.100000,-0.100000)"
fill="#000000" stroke="none">
<path d="M1045 1780 c-43 -13 -110 -73 -142 -127 -21 -36 -27 -63 -32 -130
l-6 -85 -75 -57 c-58 -44 -88 -77 -138 -151 -73 -108 -112 -188 -112 -228 0
-15 -9 -51 -21 -81 -11 -30 -17 -61 -13 -70 14 -34 11 -109 -9 -194 -17 -73
-25 -91 -49 -108 -15 -11 -26 -24 -23 -29 3 -4 -3 -14 -13 -21 -15 -13 -16
-12 -3 3 7 10 9 18 3 18 -12 0 -34 -25 -27 -32 3 -2 -7 -15 -23 -29 l-27 -24
24 27 c46 52 6 28 -53 -31 -38 -38 -56 -63 -51 -72 5 -8 4 -10 -3 -5 -7 4 -12
2 -12 -3 0 -26 38 -6 101 53 37 36 78 70 90 77 20 10 21 9 16 -12 -16 -57 -29
-150 -23 -165 13 -33 151 8 183 55 24 35 53 149 53 208 0 21 6 47 14 58 7 11
14 24 14 28 0 5 2 11 4 13 3 2 6 -21 7 -52 3 -74 35 -198 66 -249 23 -40 91
-102 101 -93 2 3 -3 22 -11 43 -9 20 -20 75 -26 121 -5 47 -16 99 -24 117 -9
18 -13 24 -10 14 3 -11 1 -15 -6 -12 -5 4 -7 15 -4 25 4 12 -5 28 -24 48 l-30
30 26 7 c32 8 37 2 52 -60 19 -79 62 -186 93 -232 26 -38 88 -96 96 -89 1 2
-6 19 -17 37 -15 26 -41 151 -41 197 0 4 16 -20 36 -53 46 -76 64 -97 81 -90
8 2 11 0 8 -5 -3 -5 13 -19 36 -31 l42 -21 -31 38 c-18 21 -32 45 -32 52 0 7
-5 10 -10 7 -7 -4 -9 2 -5 17 4 15 -5 56 -24 106 -16 45 -28 82 -26 82 2 0 23
-37 47 -82 43 -81 141 -198 167 -198 10 0 11 3 2 14 -11 13 -51 139 -51 159 0
5 22 -15 49 -45 27 -29 64 -62 82 -72 l33 -19 -21 29 c-11 16 -28 55 -37 86
-9 32 -19 65 -22 75 -4 10 9 -4 29 -32 30 -44 61 -73 105 -99 11 -7 11 -2 -1
20 -8 16 -20 47 -27 69 -27 85 -52 134 -66 128 -8 -3 -14 -1 -14 5 0 18 31 6
48 -19 9 -13 23 -25 29 -26 7 -2 22 -12 34 -24 20 -20 80 -49 129 -63 l25 -7
-25 20 c-13 11 -27 18 -31 15 -4 -2 -13 4 -20 14 -13 15 -12 16 4 3 28 -22 20
-3 -19 44 -23 29 -41 42 -51 38 -12 -5 -14 -1 -9 15 5 16 -1 27 -29 49 -36 29
-44 43 -22 43 6 -1 28 -23 47 -50 40 -56 104 -96 171 -106 l44 -7 -42 31 c-52
39 -65 58 -32 48 13 -4 49 -9 79 -12 l55 -5 -55 31 c-75 42 -80 50 -23 35 27
-7 61 -11 76 -8 l27 5 -33 18 c-95 51 -137 77 -131 82 3 4 27 -7 52 -23 45
-28 114 -40 126 -20 3 4 -24 22 -60 39 -36 16 -61 32 -57 35 5 3 22 -3 39 -14
30 -19 89 -25 112 -11 8 6 -6 15 -43 27 -30 11 -55 23 -55 28 0 5 -7 6 -16 3
-13 -5 -14 -3 -7 6 10 13 26 148 18 148 -14 0 -34 -63 -30 -92 4 -29 4 -30 -4
-8 -8 23 -9 21 -11 -15 -1 -22 -2 -43 -2 -47 1 -3 -6 -12 -15 -20 -15 -12 -16
-10 -9 17 10 39 26 159 21 163 -2 2 -15 -16 -28 -40 -17 -28 -27 -62 -29 -98
-3 -50 -11 -69 -30 -70 -3 0 0 20 8 45 7 25 11 51 8 58 -2 7 2 35 11 62 l14
50 -27 -34 c-15 -19 -35 -48 -45 -65 l-18 -31 5 45 c3 25 8 55 11 65 11 33
-45 -35 -65 -80 -22 -49 -38 -151 -21 -141 6 4 11 3 11 -2 0 -8 -51 -24 -57
-18 -2 1 6 20 16 42 10 21 22 64 26 94 4 30 15 74 25 98 11 23 15 42 11 42
-12 0 -55 -49 -57 -65 -3 -17 -34 -51 -34 -36 0 5 5 13 10 16 6 3 10 12 10 18
0 7 -12 0 -25 -15 -29 -34 -30 -34 -30 -4 0 13 3 22 6 20 14 -8 20 49 7 58
-10 8 -9 9 3 5 10 -3 24 5 38 24 12 16 18 29 14 29 -20 0 -113 -75 -141 -113
-39 -55 -84 -157 -79 -178 6 -23 -19 -53 -38 -45 -15 5 -15 9 3 33 20 31 77
170 88 218 9 38 29 78 49 99 25 25 -6 21 -38 -4 l-26 -21 29 63 c16 35 32 86
35 113 5 51 2 52 -9 4 -14 -62 -74 -37 -111 44 -13 29 -44 72 -70 97 -57 55
-75 88 -75 137 0 59 61 147 124 180 40 21 47 6 44 -92 l-3 -80 40 -20 c36 -18
57 -20 221 -17 188 3 295 -8 347 -34 l30 -16 -7 43 c-9 59 -50 116 -116 161
-105 71 -299 117 -435 103 -76 -8 -76 -8 -120 -1 -16 3 -44 1 -60 -4z m332
-20 c79 -11 218 -52 246 -72 15 -11 13 -13 -19 -13 -46 0 -65 -24 -46 -56 13
-21 12 -21 -15 -16 -91 19 -244 29 -306 20 -37 -5 -69 -8 -71 -5 -3 2 0 17 6
34 6 16 8 49 5 73 -6 43 -6 44 26 48 37 4 72 1 174 -13z m163 -172 c84 -18
187 -55 177 -64 -1 -2 -25 3 -51 11 -61 19 -132 21 -278 11 l-116 -8 -36 35
-35 36 32 4 c59 8 211 -5 307 -25z m-470 -636 c-31 -65 -38 -98 -19 -86 9 5
10 -1 5 -22 -9 -35 -19 -47 -38 -42 -13 2 -11 18 11 93 15 54 34 97 46 107 11
9 21 15 22 14 2 -2 -11 -30 -27 -64z m40 -6 c-18 -31 -34 -56 -37 -56 -2 0 -2
3 0 8 2 4 17 34 32 66 16 33 31 54 33 48 1 -5 -11 -35 -28 -66z m109 -18 c-22
-44 -47 -73 -55 -66 -2 3 7 18 21 34 14 16 23 35 20 42 -3 7 -1 11 4 8 5 -3
11 1 15 9 3 8 8 15 11 15 3 0 -4 -19 -16 -42z m288 -20 c-3 -8 -6 -5 -6 6 -1
11 2 17 5 13 3 -3 4 -12 1 -19z m-47 -57 c0 -41 -23 -62 -44 -41 -8 8 -7 11 3
8 9 -2 18 10 24 35 12 47 17 47 17 -2z m-232 -39 c-7 -30 -16 -42 -29 -42 -16
0 -15 4 9 44 15 24 28 43 29 42 1 -1 -3 -21 -9 -44z m66 -10 c-5 -22 -12 -32
-25 -32 -17 0 -17 2 3 35 24 42 31 41 22 -3z m-600 14 c-7 -17 -54 -50 -55
-39 0 5 -4 -2 -9 -14 -10 -26 -66 -63 -93 -63 -14 0 -16 5 -11 28 10 39 10 39
62 57 26 8 58 22 72 30 32 18 41 19 34 1z m102 -27 c-3 -17 -6 -39 -6 -49 0
-10 -7 -20 -15 -23 -11 -5 -13 1 -9 26 11 66 15 77 25 77 7 0 9 -11 5 -31z
m124 6 c-7 -8 -19 -15 -28 -15 -8 0 -12 -3 -9 -7 4 -3 2 -12 -4 -20 -20 -23
-28 -14 -16 17 7 18 17 28 24 26 7 -3 13 -1 13 4 0 6 7 10 16 10 14 0 14 -3 4
-15z m600 4 c0 -5 -5 -7 -12 -3 -8 5 -9 0 -5 -15 5 -22 5 -22 -13 -6 -11 10
-17 22 -14 26 7 13 44 11 44 -2z m-810 -42 c0 -18 5 -38 12 -45 14 -14 11 -18
-25 -27 -28 -7 -28 -7 -22 31 10 58 15 74 26 74 5 0 9 -15 9 -33z m315 23 c3
-5 -1 -10 -10 -10 -9 0 -13 5 -10 10 3 6 8 10 10 10 2 0 7 -4 10 -10z m435
-25 c13 -14 19 -25 14 -25 -11 1 -54 36 -54 44 0 13 18 5 40 -19z m-50 11 c0
-3 -4 -8 -10 -11 -5 -3 -10 -1 -10 4 0 6 5 11 10 11 6 0 10 -2 10 -4z m-434
-21 c-11 -8 -27 -15 -35 -14 -9 0 -2 7 14 14 39 18 45 18 21 0z m101 9 c-3 -3
-12 -4 -19 -1 -8 3 -5 6 6 6 11 1 17 -2 13 -5z m236 -11 c-9 -3 -11 -14 -6
-31 5 -23 4 -25 -9 -15 -8 7 -18 10 -22 6 -4 -4 -4 0 -1 9 4 9 0 20 -7 24 -9
6 -4 10 17 14 31 6 50 1 28 -7z m-199 -46 c4 -23 18 -66 31 -95 13 -29 21 -51
16 -48 -5 3 -14 19 -21 36 -10 24 -15 28 -22 18 -6 -9 -7 -5 -3 11 5 14 3 21
-3 17 -5 -3 -18 4 -28 17 l-19 22 23 -19 c38 -32 24 -4 -20 41 l-42 43 41 0
c40 0 41 0 47 -43z m106 18 c0 -14 9 -47 19 -75 24 -63 17 -66 -9 -4 -16 36
-23 44 -33 35 -10 -8 -14 -7 -14 4 0 8 4 12 9 9 20 -13 5 17 -18 35 l-27 21
37 0 c32 0 36 -3 36 -25z m-221 -32 c16 -57 14 -57 -29 -12 -22 23 -40 44 -40
46 0 1 13 3 30 3 25 0 30 -5 39 -37z m261 17 c0 -5 -2 -10 -4 -10 -3 0 -8 5
-11 10 -3 6 -1 10 4 10 6 0 11 -4 11 -10z m315 0 c3 -5 1 -10 -4 -10 -6 0 -11
5 -11 10 0 6 2 10 4 10 3 0 8 -4 11 -10z m-685 -17 c0 -10 3 -29 7 -43 6 -22
3 -21 -25 11 -39 44 -39 49 -7 49 17 0 25 -6 25 -17z m500 -33 c6 -11 9 -20 7
-20 -2 0 -12 9 -22 20 -10 11 -13 20 -7 20 6 0 16 -9 22 -20z m-423 -12 c-3
-8 -6 -5 -6 6 -1 11 2 17 5 13 3 -3 4 -12 1 -19z m343 -42 c0 -6 -7 -2 -15 8
-8 11 -15 25 -15 30 0 6 7 2 15 -8 8 -11 15 -25 15 -30z m-315 24 c3 -5 1 -10
-4 -10 -6 0 -11 5 -11 10 0 6 2 10 4 10 3 0 8 -4 11 -10z m455 -23 c0 -20 0
-20 -15 -1 -19 25 -19 35 0 28 8 -4 15 -16 15 -27z m-116 -3 c3 -8 2 -12 -4
-9 -6 3 -10 10 -10 16 0 14 7 11 14 -7z m-609 -24 c3 -5 1 -10 -4 -10 -6 0
-11 5 -11 10 0 6 2 10 4 10 3 0 8 -4 11 -10z m204 -70 c0 -10 -3 -8 -9 5 -12
27 -12 43 0 25 5 -8 9 -22 9 -30z m59 -5 c3 -11 0 -15 -7 -10 -6 3 -9 10 -6
15 3 4 0 11 -5 13 -6 3 -5 4 2 3 7 -1 15 -11 16 -21z m-185 -15 c3 -11 1 -20
-4 -20 -5 0 -9 4 -9 9 0 5 -3 17 -7 27 -4 11 -3 15 4 11 6 -4 13 -16 16 -27z
m92 -10 c3 -5 1 -10 -4 -10 -6 0 -11 5 -11 10 0 6 2 10 4 10 3 0 8 -4 11 -10z
m30 -60 c3 -5 1 -10 -4 -10 -6 0 -11 5 -11 10 0 6 2 10 4 10 3 0 8 -4 11 -10z
m116 -7 c13 -16 12 -17 -3 -4 -10 7 -18 15 -18 17 0 8 8 3 21 -13z"/>
<path d="M1082 1698 c-29 -29 9 -69 43 -44 14 10 15 16 6 34 -13 25 -31 28
-49 10z"/>
<path d="M3010 1637 c-55 -19 -76 -61 -83 -164 -7 -104 3 -209 23 -241 33 -50
133 -68 200 -34 57 28 70 67 70 212 0 137 -11 176 -61 213 -33 24 -103 31
-149 14z m95 -81 c16 -12 20 -30 23 -112 5 -123 -5 -166 -41 -178 -21 -8 -31
-6 -47 9 -18 16 -20 30 -20 138 0 98 3 124 17 139 19 22 42 23 68 4z"/>
<path d="M1915 1628 c-3 -7 -4 -110 -3 -228 l3 -215 81 -3 c101 -4 151 12 181
57 34 50 27 137 -13 168 -14 10 -13 15 7 42 32 43 23 112 -20 155 -30 30 -35
31 -131 34 -78 3 -101 1 -105 -10z m170 -88 c15 -16 17 -26 9 -48 -8 -22 -16
-28 -47 -30 l-37 -3 0 50 c0 49 1 51 28 51 16 0 37 -9 47 -20z m10 -184 c25
-37 11 -74 -33 -85 -19 -6 -39 -8 -44 -5 -4 3 -8 30 -8 60 l0 54 35 0 c25 0
39 -6 50 -24z"/>
<path d="M2287 1633 c-4 -3 -7 -102 -7 -218 0 -170 3 -215 14 -224 9 -8 52
-11 127 -9 l114 3 0 40 0 40 -77 3 -78 3 0 49 0 49 58 3 57 3 3 38 3 37 -45 0
c-69 0 -76 5 -76 61 l0 48 78 3 77 3 3 38 3 37 -124 0 c-68 0 -127 -3 -130 -7z"/>
<path d="M2580 1630 c0 -6 21 -63 46 -128 41 -102 48 -129 53 -217 l6 -100 34
-3 c18 -2 38 1 42 5 5 5 11 47 13 94 3 75 9 98 59 217 60 144 59 146 -9 140
l-39 -3 -25 -82 c-14 -46 -27 -83 -30 -83 -3 0 -16 37 -30 83 l-26 82 -47 3
c-29 2 -47 -1 -47 -8z"/>
<path d="M3312 1413 l3 -228 40 0 40 0 5 125 5 125 49 -120 c27 -66 54 -123
60 -128 6 -4 27 -6 46 -5 l35 3 0 225 0 225 -42 3 -42 3 -3 -128 -3 -128 -49
115 c-27 63 -53 121 -58 128 -6 6 -28 12 -49 12 l-39 0 2 -227z"/>
<path d="M3696 1624 c-10 -27 -7 -391 4 -420 l11 -27 84 5 c156 10 185 47 185
233 0 140 -13 179 -70 207 -48 25 -205 26 -214 2z m170 -78 c17 -13 19 -27 19
-129 -1 -130 -8 -147 -61 -147 l-34 0 0 145 0 145 28 0 c16 0 37 -6 48 -14z"/>
<path d="M4340 1616 c0 -4 7 -14 15 -22 8 -9 15 -11 15 -6 0 5 -7 15 -15 22
-8 7 -15 9 -15 6z"/>
<path d="M4355 1488 c4 -29 8 -58 10 -64 2 -5 -4 -20 -14 -32 -14 -19 -21 -21
-61 -14 l-45 8 52 8 c56 8 59 18 17 50 -26 18 -26 18 -15 -2 6 -11 11 -23 11
-26 0 -2 -26 -10 -57 -17 l-58 -13 52 -10 c61 -13 70 -20 53 -41 -15 -18 0
-21 18 -3 13 13 16 8 30 -62 10 -45 10 -44 11 27 1 92 6 103 45 104 17 0 24 3
16 6 -24 10 -38 35 -45 80 -9 64 -27 65 -20 1z"/>
<path d="M1180 1510 c0 -11 2 -20 4 -20 2 0 6 9 9 20 3 11 1 20 -4 20 -5 0 -9
-9 -9 -20z"/>
<path d="M4407 1453 c-4 -3 -7 -11 -7 -17 0 -6 5 -5 12 2 6 6 9 14 7 17 -3 3
-9 2 -12 -2z"/>
<path d="M1201 1440 c0 -8 4 -22 9 -30 12 -18 12 -2 0 25 -6 13 -9 15 -9 5z"/>
<path d="M4100 1403 c0 -4 5 -15 10 -23 8 -13 10 -13 10 2 0 9 -4 20 -10 23
-5 3 -10 3 -10 -2z"/>
<path d="M4130 1398 c0 -9 5 -20 10 -23 13 -8 13 5 0 25 -8 13 -10 13 -10 -2z"/>
<path d="M4415 1381 l-49 -6 32 -35 c24 -26 30 -29 22 -12 -15 30 -13 31 52
47 57 14 32 17 -57 6z"/>
<path d="M1231 1344 c0 -11 3 -14 6 -6 3 7 2 16 -1 19 -3 4 -6 -2 -5 -13z"/>
<path d="M4346 1192 c-2 -4 2 -16 10 -27 8 -10 14 -14 14 -8 0 7 -5 15 -10 18
-6 4 -8 11 -5 16 4 5 4 9 1 9 -3 0 -7 -3 -10 -8z"/>
<path d="M1857 1104 c-21 -14 -35 -30 -31 -36 5 -7 2 -8 -6 -3 -8 5 -20 -1
-32 -16 l-19 -24 6 24 c5 15 3 21 -3 17 -13 -8 -37 -76 -34 -93 2 -7 -2 -13
-8 -13 -13 0 -13 6 1 53 6 22 8 41 5 44 -9 9 -36 -55 -36 -86 0 -16 -5 -33
-10 -36 -7 -4 -8 13 -4 52 l6 58 -18 -25 c-12 -16 -19 -45 -21 -78 -2 -53 -1
-54 35 -69 31 -13 42 -13 77 -2 l40 13 -40 6 c-41 6 -37 11 20 26 l30 8 -28 4
c-29 4 -28 22 1 22 9 0 26 8 37 16 19 15 19 16 -12 9 -34 -7 -53 9 -34 28 9 9
11 8 6 -5 -6 -16 -4 -16 24 -7 17 6 34 15 37 20 3 5 -2 6 -10 3 -9 -3 -16 -1
-16 5 0 6 4 11 8 11 10 0 76 90 70 95 -2 3 -21 -7 -41 -21z m-142 -202 c-3 -3
-11 0 -18 7 -9 10 -8 11 6 5 10 -3 15 -9 12 -12z"/>
<path d="M2065 952 l-51 -3 -72 -278 c-40 -152 -72 -281 -72 -285 0 -4 26 -6
57 -4 l57 3 14 48 13 47 69 0 69 0 13 -47 14 -48 57 -3 c31 -2 57 0 57 4 0 3
-32 130 -72 281 -49 188 -77 277 -87 281 -9 4 -39 6 -66 4z m41 -268 c12 -57
19 -106 16 -109 -8 -8 -80 -6 -85 3 -6 10 36 223 42 216 3 -3 15 -52 27 -110z"/>
<path d="M2382 948 c-9 -12 -12 -81 -10 -289 l3 -274 55 0 55 0 3 108 3 108
27 -3 c25 -3 30 -12 66 -110 l39 -108 59 0 c32 0 58 3 58 7 0 4 -18 53 -40
109 -22 56 -40 108 -40 114 0 7 13 27 30 46 33 39 44 84 38 155 -10 102 -64
138 -225 146 -89 5 -110 3 -121 -9z m214 -109 c20 -17 27 -68 13 -101 -13 -32
-43 -48 -90 -48 l-29 0 0 78 c0 43 3 82 8 86 9 10 82 -2 98 -15z"/>
<path d="M2857 953 c-4 -3 -7 -134 -7 -290 l0 -283 155 0 155 0 0 50 0 50
-100 0 -100 0 0 70 0 70 75 0 c71 0 75 1 81 25 3 14 3 36 0 50 -6 24 -10 25
-81 25 l-75 0 0 64 c0 56 3 66 20 71 11 3 29 3 41 0 11 -4 47 -4 80 0 l59 7 0
43 c0 36 -4 44 -22 49 -31 8 -273 8 -281 -1z"/>
<path d="M3262 668 l3 -283 53 -3 52 -3 0 155 c0 86 4 156 8 156 4 0 14 -17
21 -37 7 -21 36 -91 63 -155 l50 -118 54 0 54 0 0 286 0 285 -52 -3 -53 -3 -5
-155 c-5 -137 -7 -152 -18 -125 -7 17 -36 86 -65 155 l-52 125 -58 3 -57 3 2
-283z"/>
<path d="M3841 913 c-65 -247 -128 -520 -122 -526 5 -5 30 -7 57 -5 48 3 48 3
59 48 l11 45 71 3 71 3 12 -51 12 -50 53 0 c30 0 56 3 58 8 3 6 -95 396 -133
525 l-11 37 -64 0 -64 0 -10 -37z m104 -231 c10 -51 15 -96 11 -100 -10 -10
-75 -12 -81 -2 -3 4 4 52 15 105 11 54 20 100 20 103 0 3 4 2 9 -3 4 -6 16
-52 26 -103z"/>
<path d="M4215 937 c-3 -7 -4 -134 -3 -282 l3 -270 153 -3 152 -3 0 50 0 50
-97 3 -97 3 -3 135 c-1 74 -3 179 -3 233 l0 97 -50 0 c-32 0 -52 -5 -55 -13z"/>
<path d="M1377 580 c12 -19 41 -51 65 -70 l43 -35 -42 50 c-22 28 -51 59 -64
70 l-23 20 21 -35z"/>
</g>
</svg>
