<?xml version="1.0" standalone="no"?>
<!DOCTYPE svg PUBLIC "-//W3C//DTD SVG 20010904//EN"
 "http://www.w3.org/TR/2001/REC-SVG-20010904/DTD/svg10.dtd">
<svg version="1.0" xmlns="http://www.w3.org/2000/svg"
 width="502.000000pt" height="441.000000pt" viewBox="0 0 502.000000 441.000000"
 preserveAspectRatio="xMidYMid meet">

<g transform="translate(0.000000,441.000000) scale(0.100000,-0.100000)"
fill="#000000" stroke="none">
<path d="M2340 4390 c-738 -57 -1403 -497 -1755 -1163 -121 -229 -204 -505
-236 -787 -17 -148 -7 -463 20 -610 90 -506 342 -950 726 -1278 299 -255 613
-409 997 -488 151 -31 492 -44 654 -25 390 46 781 210 1089 455 98 78 267 247
338 336 246 307 413 694 468 1080 20 141 18 506 -4 646 -121 766 -640 1411
-1363 1694 -277 108 -638 163 -934 140z m450 -105 c681 -101 1265 -529 1570
-1150 322 -656 269 -1460 -136 -2079 -88 -133 -159 -219 -285 -343 -180 -177
-328 -283 -544 -389 -425 -209 -904 -263 -1370 -154 -747 174 -1355 784 -1540
1543 -61 249 -72 605 -27 857 106 591 429 1077 937 1410 249 163 605 287 915
320 114 12 350 5 480 -15z"/>
<path d="M2250 4219 c-254 -33 -561 -141 -780 -276 -279 -172 -543 -442 -697
-712 -405 -709 -355 -1592 126 -2230 81 -107 80 -106 90 -95 6 5 -7 32 -36 69
-68 90 -143 203 -143 215 0 7 521 10 1690 10 l1691 0 -12 -23 c-17 -32 -116
-175 -157 -225 -25 -30 -32 -46 -25 -53 13 -13 67 52 164 199 354 534 434
1227 212 1822 -265 709 -894 1207 -1643 1300 -98 12 -385 11 -480 -1z m519
-35 c567 -74 1093 -417 1401 -913 162 -262 275 -599 286 -854 l4 -97 -20 20
c-11 11 -20 26 -20 34 0 8 -5 18 -10 21 -6 4 -8 11 -5 16 4 5 -1 16 -9 25 -12
12 -16 12 -18 2 0 -7 -2 -17 -3 -23 -2 -5 -3 -19 -4 -29 -1 -19 -1 -19 -22 0
-12 10 -30 18 -41 16 -11 -2 -31 -1 -45 3 -20 5 -24 11 -20 30 4 24 2 24 -33
19 -22 -4 -47 -1 -60 6 -22 12 -22 13 26 57 27 24 40 41 29 38 -27 -10 -165
-19 -165 -12 0 3 19 15 43 25 44 20 127 87 127 102 0 5 -16 2 -35 -6 -19 -7
-56 -14 -82 -14 l-48 0 33 16 c34 18 125 94 119 100 -2 3 -19 -2 -38 -10 -19
-7 -63 -16 -99 -20 -62 -6 -64 -5 -29 7 42 16 84 44 118 81 30 32 23 42 -16
23 -15 -8 -45 -17 -65 -21 -20 -4 -58 -16 -83 -27 -26 -11 -49 -18 -52 -15 -3
3 7 10 23 17 96 38 129 57 155 90 30 38 41 71 17 51 -11 -9 -116 -52 -127 -52
-2 0 11 10 30 23 35 24 79 81 79 103 0 10 -11 7 -37 -8 -38 -23 -38 -20 -1 34
30 44 21 52 -27 24 -25 -15 -45 -24 -45 -21 0 3 14 24 30 47 39 53 40 78 3 49
-14 -12 -28 -20 -30 -18 -2 2 4 21 12 42 22 52 9 57 -31 11 -37 -43 -46 -41
-14 4 11 16 23 43 26 62 l5 33 -25 -30 c-28 -33 -34 -25 -11 15 8 14 14 34 15
44 0 18 -1 18 -19 2 -18 -16 -19 -15 -23 26 -3 24 -15 63 -27 88 l-21 45 4
-83 c4 -70 2 -81 -10 -71 -20 16 -17 0 6 -39 27 -44 25 -50 -5 -22 l-25 23 0
-21 c0 -12 16 -39 35 -61 49 -54 44 -61 -7 -9 -23 23 -43 37 -45 31 -7 -19 25
-71 57 -95 17 -12 30 -27 30 -34 0 -7 -15 1 -32 17 -56 52 -88 72 -88 56 0
-22 56 -93 89 -113 17 -10 31 -25 31 -33 0 -9 -19 3 -47 30 -101 96 -133 95
-68 -1 36 -53 28 -52 -32 4 -27 24 -33 26 -33 13 0 -46 76 -143 139 -177 12
-6 21 -18 21 -28 -1 -14 -5 -12 -23 8 -12 14 -49 46 -82 72 -34 25 -67 53 -74
62 -26 31 -31 15 -11 -36 22 -59 53 -94 127 -145 29 -20 53 -43 53 -51 0 -9
-14 -1 -39 21 -21 19 -63 50 -92 69 -30 19 -65 47 -79 61 -42 44 -43 31 -4
-45 30 -56 51 -80 96 -114 32 -24 68 -46 78 -49 22 -7 27 -25 7 -25 -13 0
-192 133 -239 178 -29 27 -35 24 -18 -9 6 -10 8 -19 5 -19 -18 0 -284 195
-296 216 -21 41 -96 102 -149 121 -53 20 -248 190 -430 376 -58 59 -112 107
-120 107 -8 0 -35 -9 -59 -20 -52 -24 -105 -25 -156 -4 -67 27 -86 16 -260
-155 -88 -87 -182 -173 -210 -191 -27 -19 -72 -51 -98 -72 -27 -21 -53 -38
-59 -38 -15 0 -159 -102 -248 -175 -98 -80 -201 -153 -272 -193 -31 -17 -88
-54 -125 -81 -77 -56 -356 -230 -375 -233 -7 -2 -19 -11 -26 -20 -14 -19 -42
-24 -42 -8 0 20 -20 10 -25 -13 -7 -28 -45 -56 -45 -33 0 7 -8 24 -19 37 l-19
23 -7 -32 c-3 -18 -11 -32 -17 -32 -6 0 -8 -7 -5 -15 4 -8 1 -17 -5 -21 -16
-10 -5 117 22 246 142 684 642 1251 1302 1478 297 103 569 128 897 86z m238
-1028 c1 -1 -2 -20 -8 -41 -10 -37 -7 -92 8 -130 6 -16 0 -17 -63 -10 -98 11
-212 7 -327 -10 -55 -8 -102 -15 -104 -15 -2 0 4 11 12 24 31 47 -15 85 -88
73 -23 -4 -14 3 33 25 126 59 356 102 485 90 28 -3 51 -6 52 -6z m105 -55
c101 -64 155 -199 112 -284 -9 -18 -47 -63 -84 -102 -40 -42 -72 -85 -79 -107
-25 -77 -123 -129 -137 -72 -11 41 3 124 30 191 14 35 26 79 26 100 0 29 6 42
28 59 26 21 27 25 27 121 0 92 6 123 24 123 4 0 28 -13 53 -29z m851 -16 c-3
-9 -8 -14 -10 -11 -3 3 -2 9 2 15 9 16 15 13 8 -4z m7 -70 c-7 -9 -15 -13 -19
-10 -3 3 1 10 9 15 21 14 24 12 10 -5z m-55 -66 c14 -22 -3 -18 -26 7 -23 25
-23 26 -2 15 12 -6 25 -16 28 -22z m-980 15 l36 -6 -42 -37 c-23 -20 -47 -39
-53 -43 -6 -3 -98 0 -204 8 -194 14 -224 12 -327 -20 -11 -4 4 5 34 19 30 14
60 24 68 21 7 -3 13 -1 13 3 0 9 93 32 195 49 66 11 235 15 280 6z m1025 -19
c-7 -9 -15 -13 -17 -11 -7 7 7 26 19 26 6 0 6 -6 -2 -15z m-3 -87 c-22 -23
-34 -20 -23 7 3 8 14 15 25 15 20 0 20 -1 -2 -22z m2 -142 c-2 -2 -14 -9 -26
-15 -19 -10 -23 -9 -23 4 0 10 9 15 27 15 14 0 24 -2 22 -4z m-344 -46 c3 -6
-1 -7 -9 -4 -18 7 -21 14 -7 14 6 0 13 -4 16 -10z m45 0 c0 -5 -2 -10 -4 -10
-3 0 -8 5 -11 10 -3 6 -1 10 4 10 6 0 11 -4 11 -10z m-9 -57 c13 -16 12 -17
-3 -4 -17 13 -22 21 -14 21 2 0 10 -8 17 -17z m-478 -679 c-3 -8 -12 -13 -20
-10 -8 3 -20 6 -26 7 -7 1 -1 5 13 9 37 12 40 11 33 -6z m631 -88 c3 -11 6
-30 6 -40 0 -18 -1 -18 -19 -2 -12 11 -21 14 -26 7 -12 -21 -48 8 -42 35 2 13
-2 29 -10 35 -11 9 -12 9 -8 -3 4 -9 -1 -18 -10 -22 -9 -3 -13 -2 -10 3 3 5
-1 11 -9 13 -10 2 -11 9 -5 25 l8 22 60 -26 c39 -17 61 -33 65 -47z m-820 9
c-7 -16 -24 -21 -24 -6 0 8 7 13 27 20 1 1 0 -6 -3 -14z"/>
<path d="M3060 3065 c-26 -32 13 -81 48 -59 34 22 22 74 -18 74 -10 0 -23 -7
-30 -15z m40 -5 c0 -5 -7 -10 -16 -10 -8 0 -12 5 -9 10 3 6 10 10 16 10 5 0 9
-4 9 -10z"/>
<path d="M1110 896 l0 -146 58 0 c75 0 105 16 116 62 7 29 6 42 -8 63 -13 20
-15 30 -7 38 17 17 13 72 -8 98 -15 19 -30 24 -85 27 l-66 4 0 -146z m113 72
c13 -20 -6 -48 -34 -48 -15 0 -19 7 -19 36 0 31 3 35 21 32 12 -2 27 -10 32
-20z m5 -127 c4 -25 -12 -41 -40 -41 -14 0 -18 8 -18 36 0 33 2 35 28 32 20
-2 28 -9 30 -27z"/>
<path d="M1344 1027 c-2 -7 -3 -71 -2 -143 l3 -129 78 -3 c76 -3 77 -3 77 22
0 23 -4 25 -47 28 -46 3 -48 4 -51 36 -3 31 -2 32 37 32 37 0 41 2 41 25 0 23
-4 25 -41 25 -39 0 -40 1 -37 33 3 31 5 32 53 37 47 5 51 8 47 40 -3 16 -152
13 -158 -3z"/>
<path d="M1530 1036 c0 -2 16 -45 35 -95 23 -60 35 -107 35 -141 0 -46 2 -50
24 -50 28 0 36 16 36 78 0 29 12 73 30 117 37 87 38 97 3 93 -24 -3 -31 -11
-47 -57 l-20 -55 -19 57 c-17 52 -21 57 -48 57 -16 0 -29 -2 -29 -4z"/>
<path d="M1779 1021 c-23 -18 -24 -26 -24 -126 0 -100 1 -108 24 -126 32 -26
104 -26 130 0 24 24 36 109 26 180 -5 38 -14 56 -32 71 -33 26 -93 26 -124 1z
m90 -45 c7 -9 11 -42 9 -87 -3 -75 -17 -99 -52 -86 -13 5 -16 22 -16 90 0 46
3 87 7 90 11 12 40 8 52 -7z"/>
<path d="M1995 1028 c-3 -8 -4 -72 -3 -144 l3 -129 27 -3 27 -3 3 78 3 78 31
-75 c28 -69 33 -75 60 -75 l29 0 0 140 0 140 -27 3 -28 3 -1 -83 0 -83 -19 45
c-39 90 -55 115 -78 118 -12 2 -24 -3 -27 -10z"/>
<path d="M2240 895 l0 -145 55 0 c104 0 125 26 125 151 0 76 -2 82 -29 110
-26 26 -36 29 -90 29 l-61 0 0 -145z m108 83 c7 -7 12 -41 12 -83 0 -73 -10
-95 -42 -95 -16 0 -18 10 -18 95 0 85 2 95 18 95 10 0 23 -5 30 -12z"/>
<path d="M2633 1032 c-6 -4 -26 -61 -43 -127 -17 -66 -34 -128 -36 -137 -4
-14 1 -18 24 -18 23 0 31 5 36 25 5 21 12 25 41 25 29 0 37 -5 45 -25 7 -18
17 -25 36 -25 23 0 25 3 20 23 -3 12 -20 77 -37 145 -28 108 -34 122 -53 122
-11 0 -26 -4 -33 -8z m41 -133 c5 -35 3 -48 -7 -52 -30 -11 -38 7 -26 62 13
60 24 57 33 -10z"/>
<path d="M3053 1033 c-10 -3 -13 -42 -13 -144 l0 -140 78 3 c71 3 77 5 80 25
3 20 -2 22 -50 25 -52 3 -53 4 -53 33 0 27 3 30 38 33 32 3 37 7 37 28 0 21
-5 24 -35 24 -33 0 -35 2 -35 35 l0 35 50 0 c47 0 50 2 50 25 0 24 -2 25 -67
24 -38 0 -74 -3 -80 -6z"/>
<path d="M3263 1033 c-10 -3 -13 -42 -13 -144 l0 -139 25 0 c24 0 25 2 25 75
0 41 4 75 8 75 5 0 21 -33 38 -72 25 -63 33 -73 54 -73 l25 0 3 138 3 137 -25
0 c-24 0 -25 -2 -28 -77 l-3 -78 -23 50 c-58 125 -56 122 -89 108z"/>
<path d="M3541 1003 c-23 -90 -61 -242 -61 -248 0 -3 12 -5 28 -3 19 2 28 9
30 26 3 18 10 22 42 22 32 0 39 -4 44 -25 5 -18 13 -25 31 -25 14 0 25 5 25
11 0 13 -47 201 -61 247 -9 26 -16 32 -39 32 -25 0 -31 -5 -39 -37z m54 -90
c11 -61 11 -66 0 -69 -26 -9 -37 13 -30 60 9 56 22 60 30 9z"/>
<path d="M3730 895 l0 -145 75 0 c73 0 75 1 75 24 0 23 -5 25 -47 28 l-48 3
-1 101 c-1 116 -6 134 -34 134 -19 0 -20 -6 -20 -145z"/>
<path d="M2805 893 l0 -138 28 -3 c27 -3 27 -3 27 53 0 47 3 56 17 53 9 -2 23
-23 33 -53 14 -42 21 -51 43 -53 32 -4 33 2 8 67 -20 48 -20 49 0 67 28 26 26
88 -6 119 -20 21 -34 25 -87 25 l-63 0 0 -137z m109 81 c28 -28 16 -62 -24
-66 -23 -3 -25 1 -28 40 -3 36 0 42 17 42 11 0 27 -7 35 -16z"/>
<path d="M2511 704 c0 -11 3 -14 6 -6 3 7 2 16 -1 19 -3 4 -6 -2 -5 -13z"/>
<path d="M1275 614 c113 -100 405 -262 572 -317 438 -145 889 -143 1308 3 111
39 277 117 364 171 83 52 231 162 231 172 0 19 -33 2 -114 -58 -356 -262 -820
-395 -1270 -364 -372 26 -722 154 -1023 376 -84 61 -132 73 -68 17z"/>
<path d="M2503 575 c6 -71 -1 -93 -20 -62 -4 6 -19 21 -33 32 l-25 20 19 -22
c15 -18 16 -24 5 -27 -8 -3 -36 -12 -64 -20 l-50 -15 85 5 85 5 -28 -22 c-15
-11 -32 -30 -38 -41 -10 -19 -10 -19 14 -3 30 19 33 16 42 -53 10 -73 17 -58
16 29 l-1 73 31 -30 c26 -23 29 -25 20 -7 -10 21 -8 22 52 37 l62 16 -85 -5
c-77 -4 -83 -3 -66 10 11 8 24 15 30 15 5 0 6 3 3 7 -4 3 0 15 10 25 17 20 5
26 -15 6 -13 -13 -14 -11 -32 60 -16 64 -24 50 -17 -33z"/>
<path d="M2701 494 c0 -11 3 -14 6 -6 3 7 2 16 -1 19 -3 4 -6 -2 -5 -13z"/>
<path d="M2261 484 c0 -11 3 -14 6 -6 3 7 2 16 -1 19 -3 4 -6 -2 -5 -13z"/>
<path d="M2280 491 c0 -5 5 -13 10 -16 6 -3 10 -2 10 4 0 5 -4 13 -10 16 -5 3
-10 2 -10 -4z"/>
<path d="M2500 270 c6 -11 12 -20 14 -20 2 0 2 9 -1 20 -3 11 -9 20 -15 20 -5
0 -4 -9 2 -20z"/>
</g>
</svg>
